<svg width="48" height="48" viewBox="0 0 48 48" fill="none" xmlns="http://www.w3.org/2000/svg">
<circle cx="24" cy="24" r="24" fill="white"/>
<path d="M24 36C30.6274 36 36 30.6274 36 24C36 17.3726 30.6274 12 24 12C17.3726 12 12 17.3726 12 24C12 30.6274 17.3726 36 24 36Z" stroke="#B91C1C" stroke-width="2" stroke-linecap="round" stroke-linejoin="round"/>
<path d="M34.775 29.3L27.9875 25.125C27.8706 25.0499 27.738 25.0028 27.6 24.9875L24.7375 24.6C24.5239 24.5693 24.3062 24.6104 24.1185 24.7167C23.9307 24.823 23.7835 24.9886 23.7 25.1875L21.9875 29.025C21.907 29.2035 21.8806 29.4017 21.9117 29.595C21.9429 29.7883 22.03 29.9683 22.1625 30.1125L24.5125 32.65C24.6187 32.7667 24.6965 32.9064 24.7399 33.0582C24.7833 33.21 24.791 33.3697 24.7625 33.525L24.275 36" stroke="#B91C1C" stroke-width="2" stroke-linecap="round" stroke-linejoin="round"/>
<path d="M16.125 14.95L15 17.6C14.902 17.8352 14.8975 18.099 14.9875 18.3375L16.425 22.1625C16.4812 22.3219 16.5773 22.4642 16.7043 22.5758C16.8312 22.6875 16.9847 22.7646 17.15 22.8L19.825 23.375C19.9734 23.405 20.1129 23.4692 20.2322 23.5625C20.3516 23.6558 20.4475 23.7756 20.5125 23.9125L20.9875 24.9C21.0719 25.0669 21.2004 25.2076 21.359 25.3068C21.5176 25.4059 21.7004 25.4598 21.8875 25.4625H23.575" stroke="#B91C1C" stroke-width="2" stroke-linecap="round" stroke-linejoin="round"/>
<path d="M27.0625 12.3875L28.225 14.4875C28.3323 14.6849 28.3709 14.9124 28.3347 15.1342C28.2985 15.356 28.1895 15.5594 28.025 15.7125L24.6625 18.75C24.6062 18.8037 24.5431 18.8499 24.475 18.8875L22.9375 19.7375C22.7909 19.8152 22.6283 19.858 22.4625 19.8625H19.7875C19.5904 19.8635 19.3979 19.9219 19.2336 20.0307C19.0693 20.1395 18.9403 20.2939 18.8625 20.475L17.825 22.9375" stroke="#B91C1C" stroke-width="2" stroke-linecap="round" stroke-linejoin="round"/>
</svg>
